HIERARCHY
ROOT Hips
{
	OFFSET -1.491427 105.555573 -1.111724
	CHANNELS 6 Xposition Yposition Zposition Xrotation Yrotation Zrotation
	JOINT Chest
	{
		OFFSET 0.277557 13.555382 1.526027
		CHANNELS 3 Xrotation Yrotation Zrotation
		JOINT Chest2
		{
			OFFSET -0.368667 21.221565 2.928479
			CHANNELS 3 Xrotation Yrotation Zrotation
			JOINT Chest3
			{
				OFFSET -0.296620 14.901489 -0.823190
				CHANNELS 3 Xrotation Yrotation Zrotation
				JOINT Neck
				{
					OFFSET 0.562594 17.182907 1.745667
					CHANNELS 3 Xrotation Yrotation Zrotation
					JOINT Head
					{
						OFFSET -0.139211 10.379868 1.437556
						CHANNELS 3 Xrotation Yrotation Zrotation
						End Site
						{
							OFFSET -0.132636 10.389694 1.365434
						}
					}
				}
				JOINT LeftCollar
				{
					OFFSET 4.662727 12.758423 4.157646
					CHANNELS 3 Xrotation Yrotation Zrotation
					JOINT LeftUpArm
					{
						OFFSET 14.532192 -5.487595 -8.197623
						CHANNELS 3 Xrotation Yrotation Zrotation
						JOINT LeftLowArm
						{
							OFFSET 4.513027 -33.454712 -0.378673
							CHANNELS 3 Xrotation Yrotation Zrotation
							JOINT LeftHand
							{
								OFFSET -2.637226 -27.660339 11.353328
								CHANNELS 3 Xrotation Yrotation Zrotation
								End Site
								{
									OFFSET -0.576374 -6.045326 2.481342
								}
							}
						}
					}
				}
				JOINT RightCollar
				{
					OFFSET -3.749080 13.023743 4.258567
					CHANNELS 3 Xrotation Yrotation Zrotation
					JOINT RightUpArm
					{
						OFFSET -14.312009 -5.554367 -8.532988
						CHANNELS 3 Xrotation Yrotation Zrotation
						JOINT RightLowArm
						{
							OFFSET -6.367851 -33.113098 -1.645761
							CHANNELS 3 Xrotation Yrotation Zrotation
							JOINT RightHand
							{
								OFFSET 2.245697 -27.962120 10.678567
								CHANNELS 3 Xrotation Yrotation Zrotation
								End Site
								{
									OFFSET 0.490810 -6.111404 2.333902
								}
							}
						}
					}
				}
			}
		}
	}
	JOINT LeftUpLeg
	{
		OFFSET 10.007609 -0.255661 0.448906
		CHANNELS 3 Xrotation Yrotation Zrotation
		JOINT LeftLowLeg
		{
			OFFSET 3.021053 -47.035347 -4.747488
			CHANNELS 3 Xrotation Yrotation Zrotation
			JOINT LeftFoot
			{
				OFFSET 1.660898 -42.831001 -12.779461
				CHANNELS 3 Xrotation Yrotation Zrotation
				JOINT LeftToe
				{
					OFFSET -0.911182 -16.682594 16.745756
					CHANNELS 3 Xrotation Yrotation Zrotation
					End Site
					{
						OFFSET -0.208311 -2.276520 23.544277
					}
				}
			}
		}
	}
	JOINT RightUpLeg
	{
		OFFSET -10.007618 0.255463 -0.448928
		CHANNELS 3 Xrotation Yrotation Zrotation
		JOINT RightLowLeg
		{
			OFFSET -1.200478 -47.309364 -2.096578
			CHANNELS 3 Xrotation Yrotation Zrotation
			JOINT RightFoot
			{
				OFFSET 1.457757 -42.389828 -14.197104
				CHANNELS 3 Xrotation Yrotation Zrotation
				JOINT RightToe
				{
					OFFSET -2.526630 -17.805923 15.366268
					CHANNELS 3 Xrotation Yrotation Zrotation
					End Site
					{
						OFFSET -5.440688 -3.940449 22.681004
					}
				}
			}
		}
	}
}
MOTION
Frames: 12
Frame Time: 0.033333
-1.491426 105.555573 -1.111723 0.000000 -0.000000 -0.000000 -0.000000 -0.000000 -0.000000 0.000000 -0.000000 0.000000 -0.000000 0.000000 0.000000 0.000000 -0.000000 0.000000 -0.000002 0.000000 0.000000 0.000001 -0.000000 -0.000001 -0.000000 0.000000 -0.000001 0.000003 0.000000 -0.000000 0.000002 -0.000002 -0.000002 0.000001 0.000000 -0.000000 -0.000001 -0.000001 -0.000000 -0.000001 0.000000 -0.000000 0.000002 -0.000002 -0.000000 -0.000000 0.000000 0.000000 -0.000000 -0.000000 0.000000 -0.000000 -0.000000 0.000001 -0.000001 -0.000000 0.000001 -0.000001 0.000000 0.000000 -0.000000 0.000000 -0.000000 -0.000001 -0.000002 -0.000000 0.000001 -0.000001 -0.000001 
-1.493189 105.552620 -1.110480 -0.000783 -0.101089 0.015119 -0.019018 0.016473 -0.016000 -0.233131 -0.001949 -0.006443 0.049395 -0.010676 0.018209 0.134162 0.011959 -0.053591 0.000000 0.000000 0.000000 -0.145351 0.571864 0.061447 0.141924 0.240530 0.038052 0.148844 0.093508 -0.472730 -0.000002 -0.000001 -0.000001 -0.115653 -0.369523 -0.021796 0.194827 -0.237326 -0.060875 -0.073678 0.009029 0.291894 0.000002 0.000001 -0.000002 0.082420 0.028717 -0.023997 -0.231725 0.039843 -0.035449 0.196609 0.045067 0.006855 -0.000001 -0.000000 -0.000000 0.264607 -0.026335 -0.025129 -0.422780 -0.041632 -0.005163 0.148947 -0.024961 0.041023 0.000001 -0.000002 -0.000000 
-1.493369 105.551811 -1.111737 0.004438 -0.030425 0.009505 -0.110282 0.005448 0.049675 0.045542 -0.024938 0.017169 -0.176608 -0.082103 -0.043866 0.468802 0.012738 -0.096838 -0.000002 -0.000000 0.000000 -0.164089 0.488313 -0.068069 -0.106585 0.062713 0.104602 -0.029213 0.093681 -0.373416 0.000001 -0.000002 -0.000001 -0.178205 -0.508769 0.003327 0.250686 -0.307529 -0.069187 -0.031709 -0.022337 0.233063 0.000002 -0.000000 -0.000001 -0.008350 -0.022081 -0.012528 -0.037195 0.042444 -0.072939 0.002975 0.102470 0.061763 0.000000 -0.000000 0.000000 0.173213 -0.000954 -0.019886 -0.335459 -0.054029 -0.015828 -0.056851 0.017213 0.029172 0.000000 -0.000002 -0.000001 
-1.494126 105.553810 -1.109663 -0.152318 0.188857 -0.060550 -0.096980 -0.015713 0.142776 -0.300810 -0.107573 0.138993 0.313041 -0.401081 -0.190673 0.352549 0.190055 -0.173408 -0.000003 -0.000000 -0.000000 -0.174325 0.811482 0.002959 -0.000453 0.018093 0.099680 0.101905 0.014275 -0.469226 0.000001 0.000001 -0.000003 -0.081958 -0.216729 0.026501 0.362836 -0.265834 -0.036907 -0.063882 0.051448 0.047130 0.000001 0.000000 -0.000000 0.034296 -0.024793 0.114465 0.198531 0.027173 -0.064513 -0.164303 -0.176233 -0.074385 0.000000 0.000000 -0.000000 0.449904 -0.028463 0.106154 -0.513629 -0.057621 -0.018045 0.029087 -0.204095 -0.018040 0.000001 0.000000 -0.000000 
-1.494752 105.556580 -1.108854 0.211349 0.007397 0.002307 -0.426874 0.007124 0.036029 -0.445200 -0.044454 0.075258 0.317326 -0.107255 -0.113552 0.393014 0.040166 0.006459 -0.000002 -0.000000 0.000000 -0.033131 0.494884 -0.128497 -0.217742 -0.321796 0.298849 0.262063 -0.121641 -0.267524 -0.000001 -0.000004 -0.000002 -0.082140 -0.691795 0.102887 0.396490 -0.092283 -0.099549 -0.281293 0.210031 0.086163 0.000001 -0.000002 -0.000000 -0.179571 -0.039455 0.042690 0.106753 -0.038144 -0.130684 -0.525739 -0.004947 0.039415 -0.000000 0.000000 -0.000000 -0.241358 0.045042 0.056648 -0.262552 0.029249 -0.094945 0.019739 0.043732 0.091005 0.000001 -0.000001 -0.000001 
-1.495755 105.560326 -1.113447 -0.056535 0.214950 -0.002547 0.081909 -0.012577 0.095013 -0.516604 -0.013599 0.029656 0.251815 -0.156667 -0.102905 0.236486 0.121933 -0.058684 -0.000001 0.000000 -0.000000 0.000542 0.125949 -0.014139 -0.141839 -0.293566 0.251248 0.177225 -0.127430 -0.308167 -0.000000 -0.000002 -0.000001 -0.090184 -0.649987 0.116704 0.170106 0.102606 -0.028360 -0.152310 0.133384 -0.162344 0.000003 0.000001 -0.000002 0.020739 -0.065824 0.076097 0.032050 -0.125672 -0.115249 -0.622790 -0.051999 -0.002112 0.000000 -0.000000 -0.000000 -0.029471 0.066147 0.030935 -0.289214 0.100577 0.008334 0.076483 -0.358537 -0.044022 0.000001 0.000000 -0.000002 
-1.494581 105.565964 -1.119657 -0.157226 0.125778 0.019290 -0.066051 0.007917 0.050046 0.027441 0.042108 -0.082988 -0.142152 0.024805 0.042152 0.426366 0.071917 -0.071471 -0.000002 0.000000 0.000000 -0.029116 0.338065 -0.165351 -0.115272 -0.286924 0.438937 0.133054 -0.184085 -0.459286 0.000000 -0.000002 -0.000001 -0.147033 -1.070019 0.228784 0.405341 -0.049754 -0.188764 -0.209700 0.220541 -0.099648 0.000002 0.000000 -0.000000 -0.202465 -0.037431 0.023096 0.283513 -0.165052 -0.084575 -0.633623 0.078785 0.074495 -0.000001 0.000000 0.000001 -0.333505 0.068760 0.000008 0.312043 0.181952 0.043262 -0.102434 -0.260726 -0.070277 0.000002 -0.000001 -0.000001 
-1.495489 105.572571 -1.124560 -0.345603 0.013025 0.012634 0.257483 0.019315 -0.033955 0.262101 0.051169 -0.101438 -0.569324 0.271817 0.098866 0.753654 -0.030689 0.036512 -0.000001 -0.000000 -0.000000 -0.100647 0.035563 -0.022074 0.198996 0.107064 0.436834 -0.058849 -0.045089 -0.780605 0.000000 -0.000004 -0.000001 -0.316572 -1.479042 0.110087 0.802193 -0.530163 -0.250549 -0.185240 0.052168 0.410887 0.000002 0.000000 0.000000 0.086553 -0.021325 0.037253 0.146196 -0.107573 -0.079620 -0.433530 -0.191222 -0.062545 0.000000 0.000000 -0.000000 -0.111815 0.026181 0.002747 0.302035 0.164805 0.011711 0.045916 -0.167706 -0.009188 0.000001 -0.000001 -0.000001 
-1.491874 105.574577 -1.126504 -0.274070 -0.151344 0.065474 0.213110 0.043041 -0.160574 -0.392108 0.063109 -0.105010 0.055838 -0.102740 0.080186 0.812625 0.127120 -0.028849 -0.000002 0.000001 -0.000000 -0.262557 1.077636 0.053694 0.141552 0.161536 0.557751 0.488244 0.148069 -1.291234 -0.000000 -0.000006 -0.000001 -0.271844 -0.913149 0.012329 0.928094 -0.721489 -0.185519 -0.172421 -0.159130 0.526943 -0.000000 -0.000002 -0.000001 0.138826 -0.038546 -0.108539 0.250793 -0.246938 -0.037021 -0.705673 0.013845 0.046084 -0.000001 0.000000 -0.000001 -0.133765 0.054616 -0.110098 0.438777 0.319061 0.067187 -0.126716 0.022244 0.156954 0.000000 -0.000000 -0.000001 
-1.489187 105.581703 -1.136754 0.024127 0.044260 0.016815 -0.063857 0.055010 -0.146849 -0.616742 -0.001512 0.007026 0.371845 -0.250157 -0.029621 0.754212 0.097851 0.066747 -0.000002 0.000001 -0.000000 -0.202907 0.533220 0.103219 0.100012 0.159108 0.441622 0.600506 0.244380 -0.976409 -0.000000 0.000002 -0.000002 -0.239665 -0.734279 0.118294 0.823603 -0.644075 -0.168385 -0.341974 -0.191541 0.155550 0.000001 -0.000000 -0.000001 -0.045757 -0.044887 -0.057614 -0.107735 -0.239570 0.062821 -0.487274 -0.074298 -0.001808 -0.000000 0.000000 -0.000000 -0.300062 0.055739 -0.116166 0.097661 0.233171 0.188658 0.046286 -0.085644 0.142297 0.000002 -0.000001 -0.000001 
-1.480398 105.583664 -1.139823 0.150536 0.152070 -0.021844 0.041862 0.028674 -0.050241 -0.148653 -0.069421 0.097846 -0.192267 -0.360638 -0.182179 0.767045 0.046345 0.087955 -0.000001 0.000001 0.000000 -0.139734 0.703417 0.071475 0.100494 0.089129 0.506956 0.441061 0.094512 -0.923530 -0.000003 -0.000002 -0.000001 -0.231245 -1.155762 0.024426 0.849792 -0.627733 -0.104817 -0.379168 -0.048483 0.086535 -0.000000 -0.000000 -0.000001 -0.048572 -0.032437 -0.056182 -0.030496 -0.220442 0.088295 -0.364905 -0.185131 -0.066081 -0.000000 -0.000000 -0.000000 -0.143360 0.046097 -0.112592 -0.212291 0.126235 0.241000 0.415823 -0.405952 0.002219 0.000002 -0.000000 -0.000001 
-1.468951 105.587227 -1.142444 -0.204867 -0.219569 -0.118311 0.585571 0.005458 -0.000858 -0.754490 0.015945 -0.006228 0.204224 -0.182365 -0.074608 0.698952 -0.018068 0.144211 -0.000002 0.000000 0.000000 -0.126301 0.416987 0.047080 0.125511 0.125101 0.467455 0.481391 0.136409 -0.587288 0.000003 0.000002 -0.000002 -0.204357 -0.941106 0.100496 0.848643 -0.631493 -0.056998 -0.241174 -0.071442 -0.440474 0.000001 0.000002 -0.000001 0.029520 -0.030264 -0.053251 0.340391 -0.178021 0.092027 -0.372987 0.191006 0.157336 -0.000001 -0.000000 -0.000000 0.243278 0.031059 -0.086537 -0.377235 0.039004 0.226417 0.300630 0.034145 0.128288 0.000001 -0.000001 -0.000002 
